<svg width="12" height="9" viewBox="0 0 12 9" fill="none" xmlns="http://www.w3.org/2000/svg">
<path d="M11.5137 4.5C11.5137 4.68877 11.4343 4.87754 11.2999 5.00541L7.49479 8.79296C7.34821 8.93302 7.1833 9 7.01228 9C6.62139 9 6.34044 8.72598 6.34044 8.35453C6.34044 8.15968 6.41984 7.98917 6.5481 7.86739L7.83683 6.56428L9.44316 5.10893L8.11167 5.182H1.20995C0.794627 5.182 0.513672 4.90798 0.513672 4.5C0.513672 4.09811 0.794627 3.82409 1.20995 3.82409H8.11167L9.43705 3.89716L7.83683 2.44181L6.5481 1.1387C6.41984 1.01083 6.34044 0.846414 6.34044 0.651556C6.34044 0.280108 6.62139 0 7.01228 0C7.1833 0 7.35432 0.0730717 7.50701 0.219215L11.2999 4.00068C11.4343 4.12855 11.5137 4.31732 11.5137 4.5Z" fill="#1A1D22"/>
</svg>
