<svg width="12" height="9" viewBox="0 0 12 9" fill="none" xmlns="http://www.w3.org/2000/svg">
<path d="M11.5562 4.5C11.5562 4.68877 11.4768 4.87754 11.3424 5.00541L7.53727 8.79296C7.39069 8.93302 7.22578 9 7.05476 9C6.66387 9 6.38292 8.72598 6.38292 8.35453C6.38292 8.15968 6.46232 7.98917 6.59058 7.86739L7.87931 6.56428L9.48564 5.10893L8.15415 5.182H1.25243C0.837107 5.182 0.556152 4.90798 0.556152 4.5C0.556152 4.09811 0.837107 3.82409 1.25243 3.82409H8.15415L9.47953 3.89716L7.87931 2.44181L6.59058 1.1387C6.46232 1.01083 6.38292 0.846414 6.38292 0.651556C6.38292 0.280108 6.66387 0 7.05476 0C7.22578 0 7.3968 0.0730717 7.54949 0.219215L11.3424 4.00068C11.4768 4.12855 11.5562 4.31732 11.5562 4.5Z" fill="#1A1D22"/>
</svg>
