<svg width="12" height="9" viewBox="0 0 12 9" fill="none" xmlns="http://www.w3.org/2000/svg">
<path d="M11.1125 4.5C11.1125 4.68877 11.0331 4.87754 10.8988 5.00541L7.09367 8.79296C6.94709 8.93302 6.78218 9 6.61116 9C6.22027 9 5.93931 8.72598 5.93931 8.35453C5.93931 8.15968 6.01871 7.98917 6.14697 7.86739L7.4357 6.56428L9.04203 5.10893L7.71055 5.182H0.808829C0.393504 5.182 0.112549 4.90798 0.112549 4.5C0.112549 4.09811 0.393504 3.82409 0.808829 3.82409H7.71055L9.03592 3.89716L7.4357 2.44181L6.14697 1.1387C6.01871 1.01083 5.93931 0.846414 5.93931 0.651556C5.93931 0.280108 6.22027 0 6.61116 0C6.78218 0 6.95319 0.0730717 7.10589 0.219215L10.8988 4.00068C11.0331 4.12855 11.1125 4.31732 11.1125 4.5Z" fill="#1A1D22"/>
</svg>
