<svg width="21" height="21" viewBox="0 0 21 21" fill="none" xmlns="http://www.w3.org/2000/svg">
<g clip-path="url(#clip0_31_2044)">
<path d="M10.542 0.5C5.01935 0.5 0.541992 4.97736 0.541992 10.5C0.541992 16.0226 5.01935 20.5 10.542 20.5C16.0646 20.5 20.542 16.0226 20.542 10.5C20.542 4.97736 16.0646 0.5 10.542 0.5ZM1.42323 10.5C1.42323 8.0644 2.37157 5.77454 4.09405 4.05206C5.81653 2.32958 8.10639 1.38124 10.542 1.38124C12.9776 1.38124 15.2675 2.32958 16.9899 4.05206C18.7124 5.77454 19.6608 8.0644 19.6608 10.5C19.6608 10.9149 19.6323 11.325 19.5787 11.729C18.9727 11.468 18.3226 11.346 17.642 11.3433C16.8625 11.3412 16.1128 11.5188 15.4139 11.8822C14.9163 12.1405 14.6092 12.5119 14.5469 13.0983C14.5143 13.4074 14.4005 13.7246 14.2547 14.0019C13.8548 14.7659 13.1891 15.2356 12.3987 15.5359C12.1072 15.6464 11.8062 15.7325 11.4795 15.6959C11.449 15.0431 11.5534 14.4242 11.7866 13.8277C11.8754 13.6006 12.0516 13.4874 12.2997 13.482C12.4983 13.4772 12.699 13.4772 12.8935 13.444C13.1654 13.3979 13.4324 13.322 13.7368 13.2508C13.65 13.1559 13.6026 13.1044 13.5551 13.0522C13.2426 12.7092 13.0054 12.3242 12.8895 11.87C12.8108 11.5622 12.8969 11.3087 13.1579 11.1365C13.2399 11.0823 13.3314 11.0416 13.4209 10.9982C13.688 10.8674 13.9619 10.7495 14.2222 10.6064C14.5252 10.4403 14.7848 10.216 15.0139 9.95973C14.7367 9.91838 14.4682 9.89398 14.2066 9.83501C13.7938 9.74214 13.4067 9.58487 13.1077 9.26762C12.901 9.04799 12.922 8.8914 13.1701 8.73143C13.2162 8.7016 13.2684 8.68059 13.3118 8.64669C13.6284 8.39995 13.9734 8.18099 14.252 7.89764C14.9543 7.18248 15.3529 6.31006 15.443 5.31019C15.4674 5.03701 15.4227 4.75841 15.4098 4.48183C15.3535 4.49268 15.3454 4.50014 15.3407 4.5103C14.7896 5.75081 13.8331 6.50393 12.5309 6.83406C12.3675 6.87608 12.1919 6.86998 11.9798 6.89032C12.1465 5.97451 12.7247 5.4817 13.4731 5.10683C13.4216 5.09056 13.3918 5.07633 13.3613 5.07226C12.4644 4.95228 11.6476 5.16242 10.9006 5.66811C10.8403 5.70879 10.7318 5.75691 10.6918 5.73048C10.6247 5.68642 10.5488 5.57931 10.5583 5.51017C10.5867 5.30206 10.6206 5.08175 10.7135 4.89669C11.005 4.3144 11.4815 3.9131 12.0577 3.62364C12.1804 3.56196 12.3058 3.50569 12.4563 3.43384C12.4082 3.42299 12.3933 3.41757 12.379 3.41689C11.049 3.40266 9.90072 3.81345 9.02423 4.85399C8.9578 4.93262 8.89001 4.95702 8.79647 4.93262C8.72936 4.91567 8.66225 4.89805 8.57616 4.875C8.74563 4.42218 8.8046 3.97478 8.62293 3.49824C8.57141 3.57755 8.53684 3.63381 8.50091 3.68804C8.21621 4.11307 7.83185 4.43235 7.41021 4.71163C7.33429 4.7618 7.26854 4.83907 7.18584 4.86415C6.99196 4.92381 6.78928 4.95228 6.59405 5.00651C5.14883 5.40849 4.06626 6.25108 3.44262 7.63463C3.35449 7.83053 3.28128 8.01491 3.0508 8.07524C3.01623 8.08406 2.98776 8.11863 2.95726 8.141C2.45563 8.50637 2.29159 9.25474 2.478 9.83297C2.69695 10.5122 3.15587 11.0193 3.72529 11.4172C5.00376 12.3092 6.42933 12.5499 7.9498 12.3011C8.21349 12.2577 8.47176 12.1818 8.7341 12.1201C8.79647 12.8299 8.55718 13.6372 8.10978 14.3686C7.78237 14.9041 7.4414 15.4383 7.18651 16.0091C6.78318 16.912 6.5988 17.8265 6.64625 18.7463C5.71078 18.3037 4.84785 17.6983 4.09473 16.9445C2.37225 15.2221 1.42391 12.9322 1.42391 10.4966L1.42323 10.5ZM18.6399 14.7001C18.3186 14.3964 18.1437 14.0195 18.2426 13.5376C18.3552 12.9851 18.7402 12.676 19.2771 12.5458C19.3306 12.5329 19.3849 12.5235 19.4384 12.516C19.2676 13.2779 18.9992 14.0107 18.6399 14.7001ZM6.90384 8.27861C6.71132 7.96001 6.37239 7.85832 5.87076 7.97763C6.10056 7.49634 6.69845 7.15944 7.36344 7.32009C8.00606 7.476 8.46566 8.10914 8.42974 8.79108C8.39449 9.46421 7.8488 10.0648 7.20821 10.1367C6.55745 10.2099 5.92567 9.8445 5.76908 9.33609C5.94194 9.36049 6.12971 9.40794 6.31816 9.40862C6.52288 9.40862 6.70183 9.31101 6.83877 9.15645C7.04687 8.92123 7.0706 8.55314 6.90384 8.27793V8.27861ZM3.87781 9.54826C3.87239 9.593 3.82833 9.6574 3.79036 9.66757C3.74766 9.67842 3.68733 9.64452 3.64191 9.61876C3.54565 9.56386 3.45482 9.49878 3.35924 9.44252C3.3084 9.41269 3.204 9.38151 3.20672 9.36727C3.22163 9.29271 3.24942 9.21 3.29958 9.1551C3.33755 9.11307 3.41618 9.10832 3.43651 9.10087C3.70428 9.11442 3.90221 9.33134 3.87713 9.54894L3.87781 9.54826ZM16.9899 16.9479C16.0633 17.8746 14.9712 18.5775 13.7816 19.0283C13.3606 18.6189 12.9125 18.2379 12.4278 17.8956C12.2726 17.7858 12.1208 17.6719 11.9472 17.5451C12.1255 17.3777 12.2746 17.2218 12.44 17.0862C13.5748 16.1596 14.9855 15.9366 16.2877 16.7547C16.4605 16.8632 16.6415 16.9581 16.8191 17.0591C16.8286 17.0469 16.8381 17.0354 16.8476 17.0232C16.7893 16.9534 16.7262 16.8876 16.6747 16.813C16.5574 16.6402 16.4246 16.4741 16.3371 16.287C16.148 15.8844 16.1365 15.4763 16.4063 15.0973C16.7154 14.6628 17.2197 14.6011 17.718 14.6981C17.9878 14.7503 18.246 14.8581 18.5104 14.9414C18.1044 15.6681 17.5953 16.3426 16.9906 16.9473L16.9899 16.9479Z" fill="#16DFAC"/>
</g>
<defs>
<clipPath id="clip0_31_2044">
<rect width="20" height="20" fill="white" transform="translate(0.541992 0.5)"/>
</clipPath>
</defs>
</svg>
