<svg width="28" height="29" viewBox="0 0 28 29" fill="none" xmlns="http://www.w3.org/2000/svg">
<path d="M27.64 14.5C27.64 22.0498 21.5197 28.17 13.97 28.17C6.42027 28.17 0.3 22.0498 0.3 14.5C0.3 6.9503 6.42027 0.830029 13.97 0.830029C21.5197 0.830029 27.64 6.9503 27.64 14.5Z" fill="#24292F" stroke="#16DFAC" stroke-width="0.6"/>
<path d="M19.6008 20.5624C19.0774 20.8896 18.916 21.5787 19.2431 22.1021C19.5702 22.6254 20.2593 22.7868 20.7827 22.4597C21.3061 22.1326 21.4675 21.4435 21.1404 20.9201C20.8133 20.3967 20.1241 20.2353 19.6008 20.5624Z" fill="white"/>
<path d="M22.8326 17.2785C22.7279 17.1127 22.4967 17.0778 22.3528 17.2087L20.992 18.4212C20.8437 18.5564 20.6082 18.5215 20.5035 18.3514L20.2069 17.876C19.544 19.1103 18.5713 20.0873 17.433 20.7502L17.8953 21.4917C17.9913 21.6444 18.1875 21.688 18.3402 21.5964L18.6455 21.4045C18.7153 21.3129 18.7807 21.2256 18.8505 21.1341C18.9421 20.8113 19.1514 20.5234 19.4567 20.3315C19.762 20.1396 20.111 20.0829 20.4424 20.1396C20.5558 20.1178 20.6605 20.096 20.7783 20.0742L21.3322 19.7296C21.3322 19.7296 21.3627 19.7078 21.3758 19.6947L23.0812 18.1726C23.1946 18.0679 23.2207 17.8978 23.1379 17.7669L22.8326 17.2785Z" fill="white"/>
<path d="M20.0849 7.37324C20.5211 6.93708 20.5255 6.23051 20.0893 5.79C19.6531 5.35384 18.9466 5.34948 18.5061 5.78564C18.0699 6.22179 18.0655 6.92836 18.5017 7.36887C18.9379 7.80503 19.6444 7.80939 20.0849 7.37324Z" fill="white"/>
<path d="M14.6199 5.43251L16.1072 6.488C16.2685 6.60576 16.2903 6.83692 16.1464 6.98085L15.8236 7.30361C16.1028 7.38648 16.3819 7.49115 16.6567 7.60891C17.6511 8.04071 18.5016 8.66877 19.1864 9.42768L19.7883 8.83015C19.9148 8.70366 19.9148 8.49867 19.7883 8.37218L19.5353 8.11921C19.4263 8.07124 19.3303 8.02762 19.2256 7.97965C18.8942 7.9622 18.5627 7.82263 18.3097 7.5653C18.0568 7.30797 17.9215 6.98085 17.9041 6.64938C17.8561 6.54034 17.8125 6.44438 17.7645 6.33971L17.3022 5.87738C17.3022 5.87738 17.276 5.85122 17.2586 5.84249L15.3919 4.51659C15.2654 4.42499 15.0953 4.44244 14.9819 4.55148L14.5719 4.9571C14.4323 5.09667 14.4498 5.32783 14.6111 5.44123L14.6199 5.43251Z" fill="white"/>
<path d="M23.4694 12.7205C22.8544 12.6507 22.3005 13.0868 22.2307 13.7018C22.1609 14.3168 22.5971 14.8707 23.2121 14.9405C23.827 15.0103 24.381 14.5741 24.4507 13.9591C24.5205 13.3442 24.0844 12.7902 23.4694 12.7205Z" fill="white"/>
<path d="M21.0008 15.5118L21.8862 15.6165C22.065 15.6383 22.222 15.5118 22.2438 15.333L22.2831 14.9753C22.2525 14.8619 22.2264 14.7572 22.2002 14.6439C22.0083 14.3691 21.9123 14.0289 21.9516 13.6712C21.9952 13.3136 22.1653 13.0039 22.4139 12.7815C22.4662 12.6768 22.5186 12.5808 22.5709 12.4762L22.6451 11.8263C22.6451 11.8263 22.6451 11.7914 22.6451 11.7696L22.5186 9.48415C22.5099 9.3315 22.3921 9.20501 22.2394 9.18757L21.6681 9.12214C21.4718 9.10034 21.3017 9.25735 21.3148 9.45362L21.4151 11.2724C21.4282 11.473 21.2537 11.6344 21.0575 11.6126L20.521 11.5515C21.0313 12.7815 21.2101 14.151 20.9964 15.5074L21.0008 15.5118Z" fill="white"/>
<path d="M11.2266 6.33092C11.8416 6.2655 12.2821 5.71158 12.2167 5.0966C12.1512 4.48163 11.5973 4.04111 10.9823 4.10654C10.3674 4.17196 9.92685 4.72587 9.99228 5.34085C10.0577 5.95583 10.6116 6.39634 11.2266 6.33092Z" fill="#16DFAC"/>
<path d="M13.1674 6.23503C13.15 6.0562 12.9886 5.92972 12.8098 5.94716L12.4521 5.98642C12.3474 6.03876 12.2515 6.08673 12.1468 6.13907C11.9244 6.38768 11.6103 6.55778 11.2527 6.59703C10.8951 6.63629 10.5549 6.53597 10.2801 6.34406C10.1667 6.31353 10.062 6.28736 9.9486 6.25683L9.29873 6.32662C9.29873 6.32662 9.26384 6.33098 9.24639 6.33534L7.04818 6.96776C6.89989 7.01138 6.80393 7.15531 6.82138 7.30796L6.88244 7.87932C6.90425 8.07559 7.09615 8.20644 7.28806 8.14974L9.0414 7.64816C9.23331 7.59146 9.42958 7.72231 9.45138 7.92294L9.49064 8.29803C10.5985 7.5304 11.8982 7.0768 13.2459 6.99393L13.1631 6.2263L13.1674 6.23503Z" fill="#16DFAC"/>
<path d="M12.5961 22.787C12.016 22.582 11.3749 22.8873 11.1699 23.4674C10.9649 24.0474 11.2702 24.6886 11.8503 24.8936C12.4304 25.0986 13.0715 24.7933 13.2765 24.2132C13.4815 23.6331 13.1762 22.992 12.5961 22.787Z" fill="white"/>
<path d="M16.9359 22.848L15.1389 22.5427C14.9427 22.5078 14.8206 22.3072 14.8903 22.1152L15.0604 21.6355C13.7651 21.8797 12.3868 21.7794 11.074 21.2778L10.8079 22.0324C10.7469 22.2025 10.8385 22.3857 11.0042 22.4424L11.3444 22.5601C11.4622 22.5601 11.5668 22.5558 11.6846 22.5514C11.9943 22.4249 12.3476 22.4075 12.6878 22.5252C13.028 22.643 13.294 22.8829 13.451 23.1751C13.5426 23.2492 13.6211 23.319 13.7127 23.3975L14.3277 23.6156C14.3277 23.6156 14.3626 23.6243 14.38 23.6287L16.635 24.0125C16.7876 24.0387 16.9359 23.9515 16.9882 23.8032L17.1801 23.258C17.2456 23.0704 17.1278 22.8698 16.9359 22.8393V22.848Z" fill="white"/>
<path d="M4.33974 11.7217C4.86312 12.0532 5.55225 11.8962 5.88372 11.3728C6.2152 10.8494 6.05818 10.1603 5.5348 9.82883C5.01142 9.49735 4.32229 9.65437 3.99082 10.1778C3.65934 10.7011 3.81636 11.3903 4.33974 11.7217Z" fill="white"/>
<path d="M4.85879 15.5905L5.55664 13.9069C5.63514 13.7237 5.85758 13.6496 6.02768 13.7586L6.32863 13.9505C6.3766 13.1044 6.57287 12.2495 6.93488 11.4252C7.12679 10.9803 7.36231 10.566 7.624 10.1822L7.01775 9.79835C6.8651 9.7024 6.66883 9.74601 6.57287 9.89867L6.38097 10.204C6.35916 10.3174 6.33735 10.4221 6.31118 10.5398C6.36788 10.8713 6.30682 11.2202 6.11055 11.5255C5.91864 11.8308 5.62642 12.0358 5.30803 12.1274C5.21207 12.1972 5.12921 12.2626 5.03325 12.3324L4.68433 12.8863C4.68433 12.8863 4.66688 12.9168 4.65816 12.9343L3.78149 15.0453C3.72043 15.1892 3.77277 15.3549 3.90361 15.4378L4.3921 15.7475C4.55784 15.8522 4.78028 15.7824 4.85443 15.5992L4.85879 15.5905Z" fill="white"/>
<path d="M5.06807 18.0066C4.48363 18.2073 4.17396 18.8441 4.37895 19.4285C4.57958 20.0129 5.21637 20.3226 5.80081 20.1176C6.38526 19.917 6.69493 19.2802 6.48993 18.6958C6.2893 18.1113 5.65252 17.8016 5.06807 18.0066Z" fill="white"/>
<path d="M8.26946 20.5319C8.17351 20.3575 8.25638 20.135 8.44829 20.0696L8.84082 19.9344C7.80714 19.0316 7.06132 17.867 6.66006 16.5891L5.97093 16.829C5.80083 16.8857 5.7136 17.0732 5.7703 17.239L5.88806 17.5792C5.96221 17.6708 6.03199 17.7493 6.10614 17.8409C6.39836 18.0022 6.63389 18.2683 6.75165 18.6085C6.86941 18.9487 6.8476 19.302 6.72112 19.6117C6.72112 19.7294 6.71676 19.8341 6.71239 19.9519L6.92611 20.5712C6.92611 20.5712 6.93919 20.6061 6.94792 20.6235L8.05139 22.6255C8.12553 22.7607 8.28691 22.8217 8.4352 22.7738L8.98039 22.5862C9.16794 22.5208 9.25081 22.3027 9.15486 22.1326L8.27382 20.5363L8.26946 20.5319Z" fill="white"/>
</svg>
